# MagicaVoxel @ Ephtracy

# group
o 

# material
mtllib StageAreaCorner.mtl
usemtl palette

# normals
vn -1 0 0
vn 1 0 0
vn 0 0 1
vn 0 0 -1
vn 0 -1 0
vn 0 1 0

# texcoords
vt 0.0371094 0.5

# verts
v 3.4 -2 12.6
v 3.4 -2 11.6
v 3.4 2 12.6
v 3.4 2 11.6
v 5.4 -2 11.6
v 5.4 -2 10.6
v 5.4 2 11.6
v 5.4 2 10.6
v 7.4 -2 10.6
v 7.4 -2 10.1
v 7.4 2 10.6
v 7.4 2 10.1
v 9.4 -2 10.1
v 9.4 -2 9.6
v 9.4 2 10.1
v 9.4 2 9.6
v 9.9 -2 9.6
v 9.9 -2 7.6
v 9.9 2 9.6
v 9.9 2 7.6
v 10.4 -2 7.6
v 10.4 -2 5.6
v 10.4 2 7.6
v 10.4 2 5.6
v 11.4 -2 5.6
v 11.4 -2 3.6
v 11.4 2 5.6
v 11.4 2 3.6
v 12.4 -2 12.6
v 12.4 -2 3.6
v 12.4 2 12.6
v 12.4 2 3.6
v 3.4 -2 12.6
v 3.4 2 12.6
v 12.4 -2 12.6
v 12.4 2 12.6
v 3.4 -2 11.6
v 3.4 2 11.6
v 5.4 -2 11.6
v 5.4 2 11.6
v 5.4 -2 10.6
v 5.4 2 10.6
v 7.4 -2 10.6
v 7.4 2 10.6
v 7.4 -2 10.1
v 7.4 2 10.1
v 9.4 -2 10.1
v 9.4 2 10.1
v 9.4 -2 9.6
v 9.4 2 9.6
v 9.9 -2 9.6
v 9.9 2 9.6
v 9.9 -2 7.6
v 9.9 2 7.6
v 10.4 -2 7.6
v 10.4 2 7.6
v 10.4 -2 5.6
v 10.4 2 5.6
v 11.4 -2 5.6
v 11.4 2 5.6
v 11.4 -2 3.6
v 11.4 2 3.6
v 12.4 -2 3.6
v 12.4 2 3.6
v 3.4 -2 12.6
v 12.4 -2 12.6
v 3.4 -2 11.6
v 5.4 -2 11.6
v 5.4 -2 10.6
v 7.4 -2 10.6
v 7.4 -2 10.1
v 9.4 -2 10.1
v 9.4 -2 9.6
v 9.9 -2 9.6
v 9.9 -2 7.6
v 10.4 -2 7.6
v 10.4 -2 5.6
v 11.4 -2 5.6
v 11.4 -2 3.6
v 12.4 -2 3.6
v 3.4 2 12.6
v 12.4 2 12.6
v 3.4 2 11.6
v 5.4 2 11.6
v 5.4 2 10.6
v 7.4 2 10.6
v 7.4 2 10.1
v 9.4 2 10.1
v 9.4 2 9.6
v 9.9 2 9.6
v 9.9 2 7.6
v 10.4 2 7.6
v 10.4 2 5.6
v 11.4 2 5.6
v 11.4 2 3.6
v 12.4 2 3.6

# faces
f 3/1/1 2/1/1 1/1/1
f 4/1/1 2/1/1 3/1/1
f 7/1/1 6/1/1 5/1/1
f 8/1/1 6/1/1 7/1/1
f 11/1/1 10/1/1 9/1/1
f 12/1/1 10/1/1 11/1/1
f 15/1/1 14/1/1 13/1/1
f 16/1/1 14/1/1 15/1/1
f 19/1/1 18/1/1 17/1/1
f 20/1/1 18/1/1 19/1/1
f 23/1/1 22/1/1 21/1/1
f 24/1/1 22/1/1 23/1/1
f 27/1/1 26/1/1 25/1/1
f 28/1/1 26/1/1 27/1/1
f 29/1/2 30/1/2 31/1/2
f 31/1/2 30/1/2 32/1/2
f 35/1/3 34/1/3 33/1/3
f 36/1/3 34/1/3 35/1/3
f 37/1/4 38/1/4 39/1/4
f 39/1/4 38/1/4 40/1/4
f 41/1/4 42/1/4 43/1/4
f 43/1/4 42/1/4 44/1/4
f 45/1/4 46/1/4 47/1/4
f 47/1/4 46/1/4 48/1/4
f 49/1/4 50/1/4 51/1/4
f 51/1/4 50/1/4 52/1/4
f 53/1/4 54/1/4 55/1/4
f 55/1/4 54/1/4 56/1/4
f 57/1/4 58/1/4 59/1/4
f 59/1/4 58/1/4 60/1/4
f 61/1/4 62/1/4 63/1/4
f 63/1/4 62/1/4 64/1/4
f 67/1/5 66/1/5 65/1/5
f 68/1/5 66/1/5 67/1/5
f 69/1/5 66/1/5 68/1/5
f 70/1/5 66/1/5 69/1/5
f 71/1/5 66/1/5 70/1/5
f 72/1/5 66/1/5 71/1/5
f 73/1/5 66/1/5 72/1/5
f 74/1/5 66/1/5 73/1/5
f 75/1/5 66/1/5 74/1/5
f 76/1/5 66/1/5 75/1/5
f 77/1/5 66/1/5 76/1/5
f 78/1/5 66/1/5 77/1/5
f 79/1/5 66/1/5 78/1/5
f 80/1/5 66/1/5 79/1/5
f 81/1/6 82/1/6 83/1/6
f 83/1/6 82/1/6 84/1/6
f 84/1/6 82/1/6 85/1/6
f 85/1/6 82/1/6 86/1/6
f 86/1/6 82/1/6 87/1/6
f 87/1/6 82/1/6 88/1/6
f 88/1/6 82/1/6 89/1/6
f 89/1/6 82/1/6 90/1/6
f 90/1/6 82/1/6 91/1/6
f 91/1/6 82/1/6 92/1/6
f 92/1/6 82/1/6 93/1/6
f 93/1/6 82/1/6 94/1/6
f 94/1/6 82/1/6 95/1/6
f 95/1/6 82/1/6 96/1/6
